<?xml version="1.0" encoding="utf-8"?><svg viewBox="0 0 905 922" xmlns="http://www.w3.org/2000/svg" xmlns:xlink="http://www.w3.org/1999/xlink"><style>:root>svg{display:none}:root>svg:target{display:block}</style><svg fill="none" viewBox="0 0 19 52" id="arrow" xmlns="http://www.w3.org/2000/svg"><path d="M8.377 51.33a1.2 1.2 0 001.697 0l7.637-7.636a1.2 1.2 0 10-1.697-1.697l-6.788 6.788-6.789-6.788A1.2 1.2 0 00.74 43.694l7.637 7.637zM8.026.483v50h2.4v-50h-2.4z" fill="#313A34"/></svg><svg fill="none" viewBox="0 0 19 52" id="arrow-dark" xmlns="http://www.w3.org/2000/svg"><path d="M8.377 51.33a1.2 1.2 0 001.697 0l7.637-7.636a1.2 1.2 0 10-1.697-1.697l-6.788 6.788-6.789-6.788A1.2 1.2 0 00.74 43.694l7.637 7.637zM8.026.483v50h2.4v-50h-2.4z" fill="#fff"/></svg><svg fill="none" viewBox="0 0 432 922" id="bg-effect1" xmlns="http://www.w3.org/2000/svg"><g filter="url(#cfilter0_f)"><rect x="-242" y="248" width="424" height="424" rx="212" fill="url(#cpaint0_linear)" fill-opacity=".6"/></g><defs><linearGradient id="cpaint0_linear" x1="-213.5" y1="266.5" x2="162" y2="632.5" gradientUnits="userSpaceOnUse"><stop stop-color="#9273ED"/><stop offset=".505" stop-color="#1654F2"/><stop offset="1" stop-color="#A82FD2"/></linearGradient><filter id="cfilter0_f" x="-492" y="-2" width="924" height="924" filterUnits="userSpaceOnUse" color-interpolation-filters="sRGB"><feFlood flood-opacity="0" result="BackgroundImageFix"/><feBlend in="SourceGraphic" in2="BackgroundImageFix" result="shape"/><feGaussianBlur stdDeviation="125" result="effect1_foregroundBlur"/></filter></defs></svg><svg fill="none" viewBox="0 0 905 758" id="bg-effect2" xmlns="http://www.w3.org/2000/svg"><g filter="url(#dfilter0_f)"><rect x="250" y="250" width="424" height="424" rx="212" fill="url(#dpaint0_linear)" fill-opacity=".26"/></g><defs><linearGradient id="dpaint0_linear" x1="278.5" y1="268.5" x2="654" y2="634.5" gradientUnits="userSpaceOnUse"><stop stop-color="#ED7373"/><stop offset=".505" stop-color="#F2164B"/><stop offset="1" stop-color="#D22F7E"/></linearGradient><filter id="dfilter0_f" x="0" y="0" width="924" height="924" filterUnits="userSpaceOnUse" color-interpolation-filters="sRGB"><feFlood flood-opacity="0" result="BackgroundImageFix"/><feBlend in="SourceGraphic" in2="BackgroundImageFix" result="shape"/><feGaussianBlur stdDeviation="125" result="effect1_foregroundBlur"/></filter></defs></svg><svg fill="none" viewBox="0 0 166 33" id="logo" xmlns="http://www.w3.org/2000/svg"><path d="M21.783 17.59l.14.071L20 25.225l-.227.791-1.205-.791H0v-.176c.769-.293 1.41-.85 1.921-1.671.525-.833.787-1.8.787-2.902V2.058C2.708 1.026 1.805.405 0 .193V0h11.407v.193C10.382.287 9.613.475 9.1.756c-.512.27-.769.704-.769 1.302v22.587h1.503c1.234 0 2.34-.106 3.318-.317.979-.223 1.788-.463 2.429-.721.652-.27 1.345-.733 2.078-1.39.746-.657 1.316-1.214 1.712-1.671.396-.457.996-1.19 1.8-2.199.267-.34.471-.592.61-.756zM33.364 7.529c2.958 0 5.305.815 7.04 2.445 1.747 1.618 2.62 3.794 2.62 6.526 0 2.662-.88 4.826-2.638 6.49-1.746 1.655-4.087 2.481-7.022 2.481-2.958 0-5.31-.809-7.057-2.427-1.735-1.619-2.603-3.8-2.603-6.544 0-2.662.874-4.82 2.62-6.473 1.759-1.666 4.105-2.498 7.04-2.498zm1.398 17.344c2.212 0 3.319-1.782 3.319-5.347 0-1.7-.204-3.384-.612-5.049-.396-1.677-1.077-3.149-2.044-4.415-.966-1.278-2.119-1.918-3.458-1.918-2.213 0-3.32 1.8-3.32 5.4 0 1.678.199 3.355.595 5.032.407 1.665 1.1 3.13 2.078 4.397.979 1.267 2.126 1.9 3.442 1.9zM57.19 7.529c2.574 0 5.136.445 7.687 1.337v17.66c0 .716-.681 1.572-2.044 2.569-1.35.997-2.97 1.853-4.856 2.568-1.887.727-3.517 1.09-4.891 1.09a7.608 7.608 0 01-3.372-.79c-1.071-.529-1.915-1.355-2.532-2.481l4.681-1.407c.454.985.972 1.753 1.555 2.304.582.551 1.089.88 1.52.985.43.106.92.158 1.467.158.885 0 1.642-.387 2.27-1.16.63-.763.944-1.865.944-3.308v-3.096c-1.316 1.009-3.022 1.513-5.118 1.513-2.644 0-4.74-.744-6.289-2.234-1.549-1.49-2.323-3.471-2.323-5.945 0-2.815.972-5.143 2.917-6.984 1.945-1.853 4.74-2.78 8.385-2.78zm-.314 16.799c1.142 0 2.056-.399 2.743-1.196v-13c-1.141-1.278-2.452-1.917-3.93-1.917-1.55 0-2.714.621-3.494 1.864-.769 1.232-1.153 2.92-1.153 5.066 0 2.616.553 4.803 1.66 6.562 1.117 1.747 2.51 2.62 4.174 2.62zM77.943 7.529c2.958 0 5.305.815 7.04 2.445 1.746 1.618 2.62 3.794 2.62 6.526 0 2.662-.88 4.826-2.638 6.49-1.747 1.655-4.087 2.481-7.022 2.481-2.958 0-5.31-.809-7.057-2.427-1.735-1.619-2.603-3.8-2.603-6.544 0-2.662.873-4.82 2.62-6.473 1.759-1.666 4.105-2.498 7.04-2.498zm1.397 17.344c2.213 0 3.32-1.782 3.32-5.347 0-1.7-.204-3.384-.612-5.049-.396-1.677-1.077-3.149-2.044-4.415-.966-1.278-2.12-1.918-3.459-1.918-2.212 0-3.318 1.8-3.318 5.4 0 1.678.197 3.355.593 5.032.408 1.665 1.101 3.13 2.08 4.397.977 1.267 2.124 1.9 3.44 1.9zM96.145 25.805l-4.63-.897.106-2.163V6.175c0-.693-.28-1.062-.839-1.109-.559-.059-1.444.117-2.655.528v-.211l9.048-4.257-.28 1.759v4.872h4.42l-.174.862h-4.245v15.955l5.293-.14v.14l-5.293 1.231h-.751zM117.893 7.757h5.502v.141c-.64.235-1.199.633-1.677 1.196-.477.552-1.025 1.56-1.642 3.026l-6.306 15.057a96.15 96.15 0 01-.699 1.566c-.151.34-.407.792-.768 1.355-.35.574-.705.996-1.066 1.266-.361.281-.827.528-1.397.739-.571.223-1.211.334-1.922.334l-1.362-1.6c3.074 0 5.194-1.15 6.358-3.448l-7.721-17.186-1.327-2.446h9.013v.141c-2.34.293-2.958 1.683-1.851 4.17l4.21 9.85 4.157-9.85c.314-.74.489-1.367.524-1.883.035-.516-.076-.92-.332-1.214-.244-.305-.489-.522-.734-.65a5.15 5.15 0 00-.96-.423v-.14zM135.169 7.529c3.272 0 5.787.797 7.546 2.392 1.77 1.583 2.655 3.659 2.655 6.227 0 2.885-1.025 5.16-3.074 6.825-2.05 1.666-4.629 2.498-7.739 2.498-.885 0-1.822-.117-2.812-.352v4.433c0 .985.122 1.7.367 2.146.256.446.774.845 1.554 1.197V33l-8.804-1.179v-.105c.618-.164 1.043-.434 1.276-.81.233-.374.349-1.02.349-1.934V9.762c-.547-.363-1.339-.574-2.376-.632V8.97c1.689-.48 3.599-.838 5.73-1.073 2.143-.246 3.919-.37 5.328-.37zm.821 17.291c2.713 0 4.076-2.228 4.087-6.684 0-1.196-.11-2.345-.332-3.448a14.358 14.358 0 00-.995-3.201c-.455-1.02-1.107-1.83-1.957-2.428-.838-.61-1.834-.915-2.987-.915-.361 0-.681.024-.961.07a3.69 3.69 0 00-.733.194c-.198.07-.32.106-.367.106v14.442c1.467 1.243 2.882 1.864 4.245 1.864zM165.825 21.724l.175.159c-.547 1.055-1.526 1.917-2.935 2.585-1.409.669-3.045 1.003-4.908 1.003-3.005 0-5.415-.826-7.232-2.48-1.805-1.654-2.708-3.753-2.708-6.297 0-2.791 1.037-5.014 3.11-6.667 2.073-1.666 4.541-2.498 7.406-2.498 2.795 0 4.787.844 5.974 2.533.839 1.196 1.019 2.369.542 3.518-.478 1.079-1.386 1.624-2.725 1.636h-8.979c.023 2.568.716 4.609 2.079 6.121 1.362 1.513 3.115 2.27 5.258 2.27 2.341-.012 3.988-.64 4.943-1.883zm-8.192-13.65c-1.095 0-2.038.598-2.83 1.794-.792 1.185-1.211 2.762-1.258 4.732l6.254-.07c.815 0 1.292-.54 1.432-1.618.163-1.22-.145-2.364-.926-3.43-.71-.939-1.601-1.408-2.672-1.408z" fill="#161616"/></svg><svg fill="none" viewBox="0 0 166 33" id="logo-dark" xmlns="http://www.w3.org/2000/svg"><path d="M21.783 17.59l.14.071L20 25.225l-.227.791-1.205-.791H0v-.176c.769-.293 1.41-.85 1.921-1.671.525-.833.787-1.8.787-2.902V2.058C2.708 1.026 1.805.405 0 .193V0h11.407v.193C10.382.287 9.613.475 9.1.756c-.512.27-.769.704-.769 1.302v22.587h1.503c1.234 0 2.34-.106 3.318-.317.979-.223 1.788-.463 2.429-.721.652-.27 1.345-.733 2.078-1.39.746-.657 1.316-1.214 1.712-1.671.396-.457.996-1.19 1.8-2.199.267-.34.471-.592.61-.756zM33.364 7.529c2.958 0 5.305.815 7.04 2.445 1.747 1.618 2.62 3.794 2.62 6.526 0 2.662-.88 4.826-2.638 6.49-1.746 1.655-4.087 2.481-7.022 2.481-2.958 0-5.31-.809-7.057-2.427-1.735-1.619-2.603-3.8-2.603-6.544 0-2.662.874-4.82 2.62-6.473 1.759-1.666 4.105-2.498 7.04-2.498zm1.398 17.344c2.212 0 3.319-1.782 3.319-5.347 0-1.7-.204-3.384-.612-5.049-.396-1.677-1.077-3.149-2.044-4.415-.966-1.278-2.119-1.918-3.458-1.918-2.213 0-3.32 1.8-3.32 5.4 0 1.678.199 3.355.595 5.032.407 1.665 1.1 3.13 2.078 4.397.979 1.267 2.126 1.9 3.442 1.9zM57.19 7.529c2.574 0 5.136.445 7.687 1.337v17.66c0 .716-.681 1.572-2.044 2.569-1.35.997-2.97 1.853-4.856 2.568-1.887.727-3.517 1.09-4.891 1.09a7.608 7.608 0 01-3.372-.79c-1.071-.529-1.915-1.355-2.532-2.481l4.681-1.407c.454.985.972 1.753 1.555 2.304.582.551 1.089.88 1.52.985.43.106.92.158 1.467.158.885 0 1.642-.387 2.27-1.16.63-.763.944-1.865.944-3.308v-3.096c-1.316 1.009-3.022 1.513-5.118 1.513-2.644 0-4.74-.744-6.289-2.234-1.549-1.49-2.323-3.471-2.323-5.945 0-2.815.972-5.143 2.917-6.984 1.945-1.853 4.74-2.78 8.385-2.78zm-.314 16.799c1.142 0 2.056-.399 2.743-1.196v-13c-1.141-1.278-2.452-1.917-3.93-1.917-1.55 0-2.714.621-3.494 1.864-.769 1.232-1.153 2.92-1.153 5.066 0 2.616.553 4.803 1.66 6.562 1.117 1.747 2.51 2.62 4.174 2.62zM77.943 7.529c2.958 0 5.305.815 7.04 2.445 1.746 1.618 2.62 3.794 2.62 6.526 0 2.662-.88 4.826-2.638 6.49-1.747 1.655-4.087 2.481-7.022 2.481-2.958 0-5.31-.809-7.057-2.427-1.735-1.619-2.603-3.8-2.603-6.544 0-2.662.873-4.82 2.62-6.473 1.759-1.666 4.105-2.498 7.04-2.498zm1.397 17.344c2.213 0 3.32-1.782 3.32-5.347 0-1.7-.204-3.384-.612-5.049-.396-1.677-1.077-3.149-2.044-4.415-.966-1.278-2.12-1.918-3.459-1.918-2.212 0-3.318 1.8-3.318 5.4 0 1.678.197 3.355.593 5.032.408 1.665 1.101 3.13 2.08 4.397.977 1.267 2.124 1.9 3.44 1.9zM96.145 25.805l-4.63-.897.106-2.163V6.175c0-.693-.28-1.062-.839-1.109-.559-.059-1.444.117-2.655.528v-.211l9.048-4.257-.28 1.759v4.872h4.42l-.174.862h-4.245v15.955l5.293-.14v.14l-5.293 1.231h-.751zM117.893 7.757h5.502v.141c-.64.235-1.199.633-1.677 1.196-.477.552-1.025 1.56-1.642 3.026l-6.306 15.057a96.15 96.15 0 01-.699 1.566c-.151.34-.407.792-.768 1.355-.35.574-.705.996-1.066 1.266-.361.281-.827.528-1.397.739-.571.223-1.211.334-1.922.334l-1.362-1.6c3.074 0 5.194-1.15 6.358-3.448l-7.721-17.186-1.327-2.446h9.013v.141c-2.34.293-2.958 1.683-1.851 4.17l4.21 9.85 4.157-9.85c.314-.74.489-1.367.524-1.883.035-.516-.076-.92-.332-1.214-.244-.305-.489-.522-.734-.65a5.15 5.15 0 00-.96-.423v-.14zM135.169 7.529c3.272 0 5.787.797 7.546 2.392 1.77 1.583 2.655 3.659 2.655 6.227 0 2.885-1.025 5.16-3.074 6.825-2.05 1.666-4.629 2.498-7.739 2.498-.885 0-1.822-.117-2.812-.352v4.433c0 .985.122 1.7.367 2.146.256.446.774.845 1.554 1.197V33l-8.804-1.179v-.105c.618-.164 1.043-.434 1.276-.81.233-.374.349-1.02.349-1.934V9.762c-.547-.363-1.339-.574-2.376-.632V8.97c1.689-.48 3.599-.838 5.73-1.073 2.143-.246 3.919-.37 5.328-.37zm.821 17.291c2.713 0 4.076-2.228 4.087-6.684 0-1.196-.11-2.345-.332-3.448a14.358 14.358 0 00-.995-3.201c-.455-1.02-1.107-1.83-1.957-2.428-.838-.61-1.834-.915-2.987-.915-.361 0-.681.024-.961.07a3.69 3.69 0 00-.733.194c-.198.07-.32.106-.367.106v14.442c1.467 1.243 2.882 1.864 4.245 1.864zM165.825 21.724l.175.159c-.547 1.055-1.526 1.917-2.935 2.585-1.409.669-3.045 1.003-4.908 1.003-3.005 0-5.415-.826-7.232-2.48-1.805-1.654-2.708-3.753-2.708-6.297 0-2.791 1.037-5.014 3.11-6.667 2.073-1.666 4.541-2.498 7.406-2.498 2.795 0 4.787.844 5.974 2.533.839 1.196 1.019 2.369.542 3.518-.478 1.079-1.386 1.624-2.725 1.636h-8.979c.023 2.568.716 4.609 2.079 6.121 1.362 1.513 3.115 2.27 5.258 2.27 2.341-.012 3.988-.64 4.943-1.883zm-8.192-13.65c-1.095 0-2.038.598-2.83 1.794-.792 1.185-1.211 2.762-1.258 4.732l6.254-.07c.815 0 1.292-.54 1.432-1.618.163-1.22-.145-2.364-.926-3.43-.71-.939-1.601-1.408-2.672-1.408z" fill="#fff"/></svg><svg fill="none" viewBox="0 0 22 22" id="moon" xmlns="http://www.w3.org/2000/svg"><path fill-rule="evenodd" clip-rule="evenodd" d="M4.35.874A14.045 14.045 0 004 4c0 7.732 6.268 14 14 14 1.075 0 2.121-.121 3.127-.35l-.642.835L18 20.392l-2.894 1.2L12 22l-3.106-.409L6 20.392l-2.485-1.907L1.608 16l-1.2-2.894L0 10l.409-3.106L1.608 4l1.907-2.485.835-.641z" fill="#FFB628"/></svg></svg>